#N canvas 72 96 924 984 12;
#X declare -path else;
#X obj 283 125 hsl 128 15 0 0.5 0 0 \$0_master_volume empty Master
-2 -8 0 10 -261234 -1 -1 8600 1;
#X obj 106 123 hsl 128 15 0 100 0 0 empty \$0_main_note main_note_input
-2 -8 0 10 -261682 -1 -1 9144 1;
#X obj 103 152 mtof;
#X obj 529 125 vradio 13 1 0 3 \$0_wave_shape empty WaveShape 0 -8
0 10 -204786 -1 -1 0;
#X text 548 140 tri;
#X text 548 124 saw;
#X text 548 155 sqr;
#N canvas 523 96 1246 984 voice 0;
#X floatatom 467 408 5 0 0 0 - - -;
#X obj 467 379 r \$0_wave_shape;
#X obj 467 439 select 0 1;
#X obj 321 773 *~;
#X obj 339 743 line;
#X msg 339 706 \$1 50;
#X obj 339 681 tgl 15 0 empty empty empty 17 7 0 10 -262144 -1 -1 1
1;
#X obj 656 868 throw~ master_output;
#X obj 683 729 *~;
#X obj 701 699 line;
#X msg 701 662 \$1 50;
#X obj 701 637 tgl 15 0 empty empty empty 17 7 0 10 -262144 -1 -1 0
1;
#X obj 935 760 *~;
#X obj 953 730 line;
#X msg 953 693 \$1 50;
#X obj 953 668 tgl 15 0 empty empty empty 17 7 0 10 -262144 -1 -1 0
1;
#X msg 338 651 1;
#X msg 378 651 0;
#X msg 701 605 1;
#X msg 741 605 0;
#X msg 952 636 1;
#X msg 992 636 0;
#X obj 100 653 saw~;
#X obj 504 528 tri~;
#X obj 936 597 square~;
#X obj 396 60 inlet;
#X obj 503 710 fold~;
#X obj 504 665 *~;
#X obj 527 578 hsl 128 15 1 8 0 0 empty \$0_wave_shape_value empty
-2 -8 0 10 -228856 -1 -1 1386 1;
#X obj 524 599 nbx 5 14 1 8 0 0 empty empty empty 0 -8 0 10 -228856
-1 -1 1.76378 256;
#X obj 523 621 else/float2sig~ 100 1;
#X obj 954 481 hsl 128 15 0 1 0 0 empty \$0_wave_shape_value empty
-2 -8 0 10 -228856 -1 -1 12700 1;
#X floatatom 951 555 5 0 0 0 - - -;
#X obj 951 518 / 8;
#X obj 141 754 fold~;
#X obj 142 719 *~;
#X obj 165 650 hsl 128 15 1 8 0 0 empty \$0_wave_shape_value empty
-2 -8 0 10 -228856 -1 -1 1386 1;
#X obj 162 671 nbx 5 14 1 8 0 0 empty empty empty 0 -8 0 10 -228856
-1 -1 1.76378 256;
#X obj 161 693 else/float2sig~ 100 1;
#X obj 459 63 r \$0_octave;
#X floatatom 394 191 5 0 0 0 - - -;
#X obj 394 153 expr $f1*2*($f2+1);
#X obj 459 109 t b f;
#X obj 538 143 nbx 8 14 -1e+37 1e+37 0 0 empty \$0_pitch empty 0 -8
0 10 -228856 -1 -1 -1200 256;
#X obj 538 171 else/cents2ratio 700;
#X obj 538 201 else/display;
#X obj 513 285 *;
#X obj 538 235 t b f;
#X obj 260 867 throw~ modulation;
#X obj 474 871 throw~ ring;
#X obj 74 863 throw~ sync;
#X connect 0 0 2 0;
#X connect 1 0 0 0;
#X connect 2 0 16 0;
#X connect 2 0 19 0;
#X connect 2 0 21 0;
#X connect 2 1 18 0;
#X connect 2 1 17 0;
#X connect 2 1 21 0;
#X connect 2 2 20 0;
#X connect 2 2 17 0;
#X connect 2 2 19 0;
#X connect 3 0 7 0;
#X connect 3 0 48 0;
#X connect 3 0 49 0;
#X connect 3 0 50 0;
#X connect 4 0 3 1;
#X connect 5 0 4 0;
#X connect 6 0 5 0;
#X connect 8 0 7 0;
#X connect 8 0 48 0;
#X connect 8 0 49 0;
#X connect 8 0 50 0;
#X connect 9 0 8 1;
#X connect 10 0 9 0;
#X connect 11 0 10 0;
#X connect 12 0 7 0;
#X connect 12 0 48 0;
#X connect 12 0 49 0;
#X connect 12 0 50 0;
#X connect 13 0 12 1;
#X connect 14 0 13 0;
#X connect 15 0 14 0;
#X connect 16 0 6 0;
#X connect 17 0 6 0;
#X connect 18 0 11 0;
#X connect 19 0 11 0;
#X connect 20 0 15 0;
#X connect 21 0 15 0;
#X connect 22 0 35 0;
#X connect 23 0 27 0;
#X connect 24 0 12 0;
#X connect 25 0 41 0;
#X connect 26 0 8 0;
#X connect 27 0 26 0;
#X connect 28 0 29 0;
#X connect 29 0 30 0;
#X connect 30 0 27 1;
#X connect 31 0 33 0;
#X connect 32 0 24 1;
#X connect 33 0 32 0;
#X connect 34 0 3 0;
#X connect 35 0 34 0;
#X connect 36 0 37 0;
#X connect 37 0 38 0;
#X connect 38 0 35 1;
#X connect 39 0 42 0;
#X connect 40 0 46 0;
#X connect 41 0 40 0;
#X connect 42 0 41 0;
#X connect 42 1 41 1;
#X connect 43 0 44 0;
#X connect 44 0 45 0;
#X connect 45 0 47 0;
#X connect 46 0 22 0;
#X connect 46 0 23 0;
#X connect 46 0 24 0;
#X connect 47 0 46 0;
#X connect 47 1 46 1;
#X restore 103 198 pd voice;
#X obj 465 125 vradio 13 1 0 4 \$0_octave empty Octave 0 -8 0 10 -261234
-1 -1 0;
#X floatatom 465 191 5 0 0 0 - - -;
#X obj 499 79 loadbang;
#N canvas 72 96 1848 984 master 0;
#X obj 1198 184 declare -path else;
#X obj 1195 456 dac~;
#X obj 1198 368 *~;
#X obj 1198 218 r \$0_master_volume;
#X floatatom 1198 267 5 0 0 0 - - -;
#X obj 1198 334 line;
#X msg 1198 300 \$1 50;
#X obj 1004 311 catch~ master_output;
#X obj 1025 488 outlet~;
#X connect 2 0 1 0;
#X connect 2 0 1 1;
#X connect 2 0 8 0;
#X connect 3 0 4 0;
#X connect 4 0 6 0;
#X connect 5 0 2 1;
#X connect 6 0 5 0;
#X connect 7 0 2 0;
#X restore 845 108 pd master;
#X obj 620 126 hsl 128 15 0 8 0 0 \$0_wave_shape_value empty Wave_Shape
-2 -8 0 10 -203904 -1 -1 2800 1;
#X obj 620 166 hsl 128 15 -1200 1200 0 1 \$0_pitch empty Pitch -2 -8
0 10 -159808 -1 -1 0 1;
#X obj 129 730 keyboard 17 80 6 0 0 0 \$0_main_note empty;
#X obj 107 255 hsl 128 15 0 100 0 0 empty \$0_main_note main_note_input
-2 -8 0 10 -261682 -1 -1 9144 1;
#X obj 104 284 mtof;
#N canvas 996 96 924 984 voice2 1;
#X floatatom 467 408 5 0 0 0 - - -;
#X obj 467 439 select 0 1;
#X obj 321 773 *~;
#X obj 339 743 line;
#X msg 339 706 \$1 50;
#X obj 339 681 tgl 15 0 empty empty empty 17 7 0 10 -262144 -1 -1 1
1;
#X obj 683 729 *~;
#X obj 701 699 line;
#X msg 701 662 \$1 50;
#X obj 701 637 tgl 15 0 empty empty empty 17 7 0 10 -262144 -1 -1 0
1;
#X obj 855 730 *~;
#X obj 873 700 line;
#X msg 873 663 \$1 50;
#X obj 873 638 tgl 15 0 empty empty empty 17 7 0 10 -262144 -1 -1 0
1;
#X msg 338 651 1;
#X msg 378 651 0;
#X msg 701 605 1;
#X msg 741 605 0;
#X msg 872 606 1;
#X msg 912 606 0;
#X obj 100 653 saw~;
#X obj 504 528 tri~;
#X obj 856 567 square~;
#X obj 262 49 inlet;
#X obj 503 710 fold~;
#X obj 504 665 *~;
#X obj 527 578 hsl 128 15 1 8 0 0 empty \$1_wave_shape_value empty
-2 -8 0 10 -228856 -1 -1 0 1;
#X obj 524 599 nbx 5 14 1 8 0 0 empty empty empty 0 -8 0 10 -228856
-1 -1 1 256;
#X obj 523 621 else/float2sig~ 100 1;
#X obj 874 451 hsl 128 15 0 1 0 0 empty \$1_wave_shape_value empty
-2 -8 0 10 -228856 -1 -1 4800 1;
#X floatatom 871 525 5 0 0 0 - - -;
#X obj 871 488 / 8;
#X obj 141 754 fold~;
#X obj 142 719 *~;
#X obj 165 650 hsl 128 15 1 8 0 0 empty \$1_wave_shape_value empty
-2 -8 0 10 -228856 -1 -1 0 1;
#X obj 162 671 nbx 5 14 1 8 0 0 empty empty empty 0 -8 0 10 -228856
-1 -1 1 256;
#X obj 161 693 else/float2sig~ 100 1;
#X floatatom 262 164 5 0 0 0 - - -;
#X obj 262 126 expr $f1*2*($f2+1);
#X obj 327 82 t b f;
#X obj 512 103 nbx 8 14 -1e+37 1e+37 0 0 empty \$1_pitch empty 0 -8
0 10 -228856 -1 -1 -935.433 256;
#X obj 512 131 else/cents2ratio 700;
#X obj 512 161 else/display;
#X obj 379 251 *;
#X obj 512 195 t b f;
#X obj 467 379 r \$1_wave_shape;
#X obj 327 36 r \$1_octave;
#X obj 724 30 catch~ modulation;
#X obj 725 76 s2f~;
#X floatatom 725 118 5 0 0 0 - - -;
#X floatatom 825 124 5 0 0 0 - #0_cross_mode_depth -;
#X obj 825 154 t b f;
#X obj 379 293 +;
#X floatatom 376 351 5 0 0 0 - - -;
#X obj 570 227 t b f;
#X obj 695 172 *;
#X obj 1213 658 catch~ ring;
#X obj 772 830 *~;
#X obj 772 892 throw~ master_output;
#X obj 1035 638 tgl 15 0 empty \$0_ring Ring 17 7 0 10 -262144 -1 -1
1 1;
#X floatatom 1034 781 5 0 0 0 - - -;
#X obj 1034 695 expr~ if($v1 == 1 \, $v2 \, 1);
#X obj 1035 665 f2s~;
#X obj 1034 738 s2f~;
#X obj 87 263 catch~ sync;
#X obj 161 478 *~;
#X obj 179 448 line;
#X msg 179 411 \$1 50;
#X obj 179 386 tgl 15 0 empty \$0_sync empty 17 7 0 10 -262144 -1 -1
1 1;
#X connect 0 0 1 0;
#X connect 1 0 14 0;
#X connect 1 0 17 0;
#X connect 1 0 19 0;
#X connect 1 1 16 0;
#X connect 1 1 15 0;
#X connect 1 1 19 0;
#X connect 1 2 18 0;
#X connect 1 2 15 0;
#X connect 1 2 17 0;
#X connect 2 0 57 0;
#X connect 3 0 2 1;
#X connect 4 0 3 0;
#X connect 5 0 4 0;
#X connect 6 0 57 0;
#X connect 7 0 6 1;
#X connect 8 0 7 0;
#X connect 9 0 8 0;
#X connect 10 0 57 0;
#X connect 11 0 10 1;
#X connect 12 0 11 0;
#X connect 13 0 12 0;
#X connect 14 0 5 0;
#X connect 15 0 5 0;
#X connect 16 0 9 0;
#X connect 17 0 9 0;
#X connect 18 0 13 0;
#X connect 19 0 13 0;
#X connect 20 0 33 0;
#X connect 21 0 25 0;
#X connect 22 0 10 0;
#X connect 23 0 38 0;
#X connect 24 0 6 0;
#X connect 25 0 24 0;
#X connect 26 0 27 0;
#X connect 27 0 28 0;
#X connect 28 0 25 1;
#X connect 29 0 31 0;
#X connect 30 0 22 1;
#X connect 31 0 30 0;
#X connect 32 0 2 0;
#X connect 33 0 32 0;
#X connect 34 0 35 0;
#X connect 35 0 36 0;
#X connect 36 0 33 1;
#X connect 37 0 43 0;
#X connect 38 0 37 0;
#X connect 39 0 38 0;
#X connect 39 1 38 1;
#X connect 40 0 41 0;
#X connect 41 0 42 0;
#X connect 42 0 44 0;
#X connect 43 0 52 0;
#X connect 44 0 43 0;
#X connect 44 1 43 1;
#X connect 45 0 0 0;
#X connect 46 0 39 0;
#X connect 47 0 48 0;
#X connect 48 0 49 0;
#X connect 49 0 55 0;
#X connect 50 0 51 0;
#X connect 51 0 55 0;
#X connect 51 1 55 1;
#X connect 52 0 53 0;
#X connect 53 0 20 0;
#X connect 53 0 21 0;
#X connect 53 0 22 0;
#X connect 54 0 52 0;
#X connect 54 1 52 1;
#X connect 55 0 54 0;
#X connect 56 0 61 1;
#X connect 57 0 58 0;
#X connect 59 0 62 0;
#X connect 60 0 57 1;
#X connect 61 0 63 0;
#X connect 62 0 61 0;
#X connect 63 0 60 0;
#X connect 64 0 65 0;
#X connect 65 0 20 1;
#X connect 65 0 21 1;
#X connect 65 0 22 2;
#X connect 66 0 65 1;
#X connect 67 0 66 0;
#X connect 68 0 67 0;
#X restore 104 330 pd voice2;
#X obj 535 274 vradio 13 1 0 3 \$1_wave_shape empty WaveShape 0 -8
0 10 -204786 -1 -1 0;
#X text 554 289 tri;
#X text 554 273 saw;
#X text 554 304 sqr;
#X obj 471 274 vradio 13 1 0 4 \$1_octave empty Octave 0 -8 0 10 -261234
-1 -1 0;
#X floatatom 471 340 5 0 0 0 - - -;
#X obj 505 228 loadbang;
#X obj 626 275 hsl 128 15 0 8 0 0 \$1_wave_shape_value empty Wave_Shape
-2 -8 0 10 -203904 -1 -1 600 1;
#X obj 626 315 hsl 128 15 -1200 1200 0 1 \$1_pitch empty Pitch -2 -8
0 10 -159808 -1 -1 1400 1;
#X obj 472 396 hsl 128 15 0 150 0 0 \$0_cross_mode_depth empty cross_mode_depth
-2 -8 0 10 -257985 -1 -1 400 1;
#X obj 616 395 tgl 15 0 \$0_ring empty Ring 17 7 0 10 -258113 -1 -1
1 1;
#X obj 844 157 graph~;
#X obj 617 432 tgl 15 0 \$0_sync empty Sync 17 7 0 10 -4160 -1 -1 1
1;
#X connect 1 0 2 0;
#X connect 2 0 7 0;
#X connect 8 0 9 0;
#X connect 10 0 8 0;
#X connect 10 0 3 0;
#X connect 11 0 29 0;
#X connect 15 0 16 0;
#X connect 16 0 17 0;
#X connect 22 0 23 0;
#X connect 24 0 22 0;
#X connect 24 0 18 0;
